<svg viewBox="0 0 739.87 167.74" xmlns="http://www.w3.org/2000/svg"><g fill="#fff"><path d="m173.28 40.28a35.5 35.5 0 0 1 13.36 11.12l-10.94 10.71a21.4 21.4 0 0 0 -7.95-9.27q-5-3-12.56-3.05c-4.6 0-8.16.86-10.65 2.59a8 8 0 0 0 -3.74 6.85 7 7 0 0 0 3.8 6.22q3.79 2.31 13.7 4a70.21 70.21 0 0 1 16.48 4.84 20.93 20.93 0 0 1 8.92 7.2 19.31 19.31 0 0 1 2.83 10.77 19.24 19.24 0 0 1 -4 12.15 25.09 25.09 0 0 1 -11.06 7.89 44.12 44.12 0 0 1 -16.18 2.77q-12.56 0-20.56-3.52a30.23 30.23 0 0 1 -13-10.65l9.45-11.29q4.26 7 9.79 9.73a30.91 30.91 0 0 0 13.7 2.71q7.38 0 11.23-2.3a7.25 7.25 0 0 0 3.86-6.57q0-3.1-3.62-5.18t-13-3.92a78 78 0 0 1 -17.11-5.18q-6.39-3-9.27-7.37a19.3 19.3 0 0 1 -2.76-10.8 21.46 21.46 0 0 1 3.69-12.27 24.32 24.32 0 0 1 10.77-8.58 41.17 41.17 0 0 1 16.64-3.11q10.57 0 18.18 3.51z"/><path d="m226 88.49-10.45 11.17v14.28h-15.78v-82.81h15.78v51.48l25-26.26h17.85l-21.66 22.58 23 35h-17.81z"/><path d="m301 117.52q-4.27 11.74-9.85 16.47t-14.92 4.72q-9.33 0-14.63-4.49l3.94-11.22a9.46 9.46 0 0 0 4.09 2.83 18.13 18.13 0 0 0 5.58.74 10.09 10.09 0 0 0 5.76-1.49 11.22 11.22 0 0 0 3.69-5.42l2.07-5-6.33-15-17.63-43.31h17.51l10.83 34.56 3.11 11.52 3.46-12.21 10.59-33.87h16z"/><path d="m389.13 53.59-4.95 4q-2.88-8.17-8.58-11.86t-15-3.69a30 30 0 0 0 -11.64 2.07 17.27 17.27 0 0 0 -7.54 5.65 13.35 13.35 0 0 0 -2.59 8.06 11.65 11.65 0 0 0 2.17 7.29q2.17 2.89 7.41 4.89a79.71 79.71 0 0 0 14.46 3.63q14.86 2.53 21.13 7.37t6.22 13.36a17.49 17.49 0 0 1 -3.57 10.83 22.78 22.78 0 0 1 -10.08 7.31 40 40 0 0 1 -14.92 2.6q-12 0-20.21-4.78a24.36 24.36 0 0 1 -11.28-13.42l5.06-3.9a20.81 20.81 0 0 0 9.28 12.5q7 4.32 17.22 4.32 9.9 0 16.18-4t6.28-11.06a11.21 11.21 0 0 0 -5.13-9.76q-5.13-3.57-17.79-5.76a78 78 0 0 1 -16.94-4.49q-6.21-2.64-8.92-6.56a16.79 16.79 0 0 1 -2.71-9.79 18.71 18.71 0 0 1 3.4-10.83 23.44 23.44 0 0 1 9.67-7.89 34.33 34.33 0 0 1 14.69-2.94q21.42.03 28.68 16.85z"/><path d="m444.71 59.29a22.64 22.64 0 0 1 8.69 11.46l-5.4 2.53a18.15 18.15 0 0 0 -6.57-9.67 19.08 19.08 0 0 0 -11.51-3.34q-10 0-15.67 6.62t-5.65 18.26q0 11.75 5.58 18.31t15.61 6.54a21.09 21.09 0 0 0 12.5-3.63 15.14 15.14 0 0 0 6.28-10.08l5.29 1.84a22.51 22.51 0 0 1 -8.69 12.39 25.65 25.65 0 0 1 -15.26 4.55q-12.8 0-19.93-7.95t-7.14-22q0-14.06 7.2-22t20-7.95a25.6 25.6 0 0 1 14.67 4.12z"/><path d="m500.75 57.16-1.5 5.41a11.72 11.72 0 0 0 -7.37-2.07 14.05 14.05 0 0 0 -8.24 2.71 19.15 19.15 0 0 0 -6.22 7.6 24.62 24.62 0 0 0 -2.36 10.88v32.25h-5.76v-57.59h4.84l.69 11.75a20.56 20.56 0 0 1 7.2-9.5 19.2 19.2 0 0 1 11.46-3.4 12 12 0 0 1 7.26 1.96z"/><path d="m562.14 109.34-.35 4.6a11.61 11.61 0 0 1 -5.64 1.16 9.69 9.69 0 0 1 -6.57-2.19q-2.54-2.19-2.88-7.6a17.5 17.5 0 0 1 -8.52 7.19 30.17 30.17 0 0 1 -12.32 2.6q-8.54 0-13.65-3.8t-5.13-10.83q0-13.36 21.89-17.28l17.62-3.11v-5.08c0-4.61-1.37-8.21-4.09-10.83s-6.59-3.91-11.58-3.91q-13.71 0-18.43 12.21l-4.37-3.23a20.1 20.1 0 0 1 8.41-10.42q5.87-3.63 14.39-3.63 10 0 15.73 4.9t5.7 14.22v29.69c0 4.07 1.76 6.1 5.3 6.1a10.19 10.19 0 0 0 4.49-.76zm-26.26-1a19.28 19.28 0 0 0 7.66-5 11.21 11.21 0 0 0 3.05-7.9v-10.64l-15.78 2.88q-9.33 1.72-13.59 4.84a9.43 9.43 0 0 0 -4.26 8 8.07 8.07 0 0 0 3.57 7.08q3.57 2.48 9.9 2.48a27.64 27.64 0 0 0 9.45-1.72z"/><path d="m620.13 63.15q7.1 8 7.09 22t-7.09 22q-7.08 7.95-19.29 7.95a23.54 23.54 0 0 1 -13-3.57 21.2 21.2 0 0 1 -8.23-9.79v36.39h-5.76v-81.78h5.18l.35 13a20.66 20.66 0 0 1 8-10.43 23.6 23.6 0 0 1 13.42-3.74q12.25.02 19.33 7.97zm-4.32 40.26q5.66-6.63 5.65-18.26t-5.65-18.26q-5.64-6.62-15.66-6.62-9 0-14.51 6.1t-6 16.7v4.15q.45 10.61 6 16.7t14.51 6.08q10.02 0 15.66-6.59z"/><path d="m691.72 87.57h-45.72q.57 10.59 6.28 16.53t15.25 5.9a23.32 23.32 0 0 0 11.69-2.77 16.1 16.1 0 0 0 7.09-7.83l4.83 2.54a22.85 22.85 0 0 1 -9.21 9.73 28.78 28.78 0 0 1 -14.4 3.4q-12.78 0-20-7.95t-7.2-22q0-14.06 7-22t19.52-7.95q11.74 0 18.43 7.83t6.72 20.77a31.4 31.4 0 0 1 -.28 3.8zm-39.62-21.48q-5.42 5.8-6.11 16.29h40.55q-.54-10.38-5.71-16.24t-14-5.87q-9.32 0-14.73 5.82z"/><path d="m739.87 57.16-1.5 5.41c-1.77-1.38-4.22-2.07-7.37-2.07a14.05 14.05 0 0 0 -8.24 2.71 19.23 19.23 0 0 0 -6.22 7.6 24.76 24.76 0 0 0 -2.36 10.88v32.25h-5.76v-57.59h4.84l.74 11.75a20.56 20.56 0 0 1 7.2-9.5 19.22 19.22 0 0 1 11.46-3.4 12 12 0 0 1 7.21 1.96z"/></g><path d="m78.49 141.63-33.22-19.16a11 11 0 0 0 -10 0l-33.2 19.16c-2.76 1.59-2.76 4.17 0 5.76l33.22 19.16a11 11 0 0 0 10 0l33.22-19.16c2.74-1.59 2.74-4.17-.02-5.76z" fill="#61199b" opacity=".08"/><path d="m35.34 159.31a11.14 11.14 0 0 0 9.88 0l32.88-18.54c2.73-1.54 2.73-4 0-5.58l-32.88-18.54a11.21 11.21 0 0 0 -9.88 0l-32.87 18.54c-2.73 1.54-2.73 4 0 5.58z" fill="#5c20a0" opacity=".12381"/><path d="m35.4 152.07a11.24 11.24 0 0 0 9.77 0l32.54-17.92c2.7-1.49 2.7-3.9 0-5.39l-32.54-17.92a11.24 11.24 0 0 0 -9.77 0l-32.54 17.92c-2.7 1.49-2.7 3.9 0 5.39z" fill="#5827a5" opacity=".167619"/><path d="m35.45 144.83a11.36 11.36 0 0 0 9.67 0l32.19-17.3c2.68-1.44 2.68-3.76 0-5.2l-32.19-17.33a11.36 11.36 0 0 0 -9.67 0l-32.19 17.33c-2.67 1.44-2.67 3.76 0 5.2z" fill="#532ea9" opacity=".211429"/><path d="m35.5 137.6a11.6 11.6 0 0 0 9.58 0l31.84-16.69c2.64-1.38 2.64-3.63 0-5l-31.84-16.7a11.6 11.6 0 0 0 -9.58 0l-31.84 16.69c-2.64 1.38-2.64 3.63 0 5z" fill="#4f35ae" opacity=".255238"/><path d="m35.56 130.36a11.74 11.74 0 0 0 9.47 0l31.5-16.07c2.61-1.33 2.61-3.49 0-4.82l-31.53-16.07a11.74 11.74 0 0 0 -9.47 0l-31.47 16.07c-2.62 1.33-2.62 3.49 0 4.82z" fill="#4a3cb3" opacity=".299048"/><path d="m35.61 123.12a11.91 11.91 0 0 0 9.37 0l31.16-15.44c2.58-1.29 2.58-3.36 0-4.65l-31.14-15.44a11.83 11.83 0 0 0 -9.37 0l-31.18 15.41c-2.58 1.29-2.58 3.36 0 4.65z" fill="#4543b8" opacity=".342857"/><path d="m35.67 115.89a12.08 12.08 0 0 0 9.26 0l30.82-14.83c2.55-1.23 2.55-3.23 0-4.46l-30.82-14.83a12.08 12.08 0 0 0 -9.26 0l-30.82 14.83c-2.56 1.23-2.56 3.23 0 4.46z" fill="#414abc" opacity=".386667"/><path d="m35.72 108.65a12.29 12.29 0 0 0 9.16 0l30.47-14.21c2.53-1.18 2.53-3.09 0-4.27l-30.47-14.17a12.29 12.29 0 0 0 -9.16 0l-30.47 14.17c-2.53 1.18-2.53 3.09 0 4.27z" fill="#3c51c1" opacity=".430476"/><path d="m35.78 101.41a12.5 12.5 0 0 0 9 0l30.22-13.59c2.5-1.13 2.5-3 0-4.08l-30.17-13.59a12.5 12.5 0 0 0 -9 0l-30.18 13.59c-2.5 1.12-2.5 3 0 4.08z" fill="#3758c6" opacity=".474286"/><path d="m35.83 94.17a12.77 12.77 0 0 0 9 0l29.79-13c2.47-1.07 2.47-2.82 0-3.9l-29.79-13a12.88 12.88 0 0 0 -9 0l-29.83 13.03c-2.47 1.08-2.47 2.83 0 3.9z" fill="#335fcb" opacity=".518095"/><path d="m35.88 86.94a13.18 13.18 0 0 0 8.85 0l29.45-12.36c2.44-1 2.44-2.68 0-3.71l-29.45-12.35a13.06 13.06 0 0 0 -8.85 0l-29.44 12.35c-2.44 1-2.44 2.69 0 3.71z" fill="#2e67cf" opacity=".561905"/><path d="m35.94 79.7a13.49 13.49 0 0 0 8.74 0l29.1-11.7c2.42-1 2.42-2.56 0-3.53l-29.1-11.76a13.36 13.36 0 0 0 -8.74 0l-29.1 11.73c-2.42 1-2.42 2.55 0 3.53z" fill="#2a6ed4" opacity=".605714"/><path d="m36 72.46a13.9 13.9 0 0 0 8.65 0l28.74-11.11c2.39-.93 2.39-2.42 0-3.34l-28.75-11.12a13.9 13.9 0 0 0 -8.65 0l-28.75 11.11c-2.39.92-2.39 2.41 0 3.34z" fill="#2575d9" opacity=".649524"/><path d="m36.05 65.23a14.3 14.3 0 0 0 8.54 0l28.41-10.5c2.36-.87 2.36-2.28 0-3.16l-28.41-10.49a14.3 14.3 0 0 0 -8.54 0l-28.42 10.49c-2.35.88-2.35 2.29 0 3.16z" fill="#207cde" opacity=".693333"/><path d="m36.1 58a14.79 14.79 0 0 0 8.44 0l28.07-9.88c2.33-.82 2.33-2.15 0-3l-28.07-9.86a15 15 0 0 0 -8.44 0l-28.1 9.88c-2.33.82-2.33 2.15 0 3z" fill="#1c83e2" opacity=".737143"/><path d="m36.16 50.75a15.31 15.31 0 0 0 8.33 0l27.73-9.26c2.3-.77 2.3-2 0-2.78l-27.73-9.26a15.31 15.31 0 0 0 -8.33 0l-27.73 9.26c-2.3.77-2.3 2 0 2.78z" fill="#178ae7" opacity=".780952"/><path d="m36.21 43.51a16 16 0 0 0 8.23 0l27.38-8.64c2.28-.71 2.28-1.88 0-2.59l-27.38-8.64a16 16 0 0 0 -8.23 0l-27.38 8.64c-2.28.71-2.28 1.88 0 2.59z" fill="#1291ec" opacity=".824762"/><path d="m36.26 36.28a16.94 16.94 0 0 0 8.13 0l27-8c2.25-.67 2.25-1.75 0-2.41l-27-8a16.94 16.94 0 0 0 -8.13 0l-27 8c-2.24.66-2.24 1.74 0 2.41z" fill="#0e98f1" opacity=".868571"/><path d="m36.32 29a17.8 17.8 0 0 0 8 0l26.68-7.36c2.21-.62 2.21-1.61 0-2.23l-26.66-7.41a17.8 17.8 0 0 0 -8 0l-26.7 7.4c-2.21.62-2.21 1.61 0 2.23z" fill="#099ff5" opacity=".912381"/><path d="m36.37 21.8a18.55 18.55 0 0 0 7.92 0l26.36-6.8c2.18-.56 2.18-1.48 0-2l-26.36-6.8a18.55 18.55 0 0 0 -7.92 0l-26.37 6.8c-2.19.56-2.19 1.48 0 2z" fill="#05a6fa" opacity=".95619"/><path d="m70.25 6.55-26.01-6.17a20.12 20.12 0 0 0 -7.81 0l-26 6.17c-2.16.51-2.16 1.34 0 1.85l26 6.17a20.12 20.12 0 0 0 7.81 0l26-6.17c2.17-.51 2.17-1.34.01-1.85z" fill="#00adff"/></svg>