<?xml version="1.0" encoding="utf-8"?>
<!-- Generator: Adobe Illustrator 22.1.0, SVG Export Plug-In . SVG Version: 6.00 Build 0)  -->
<svg version="1.1" id="Layer_1" xmlns="http://www.w3.org/2000/svg" xmlns:xlink="http://www.w3.org/1999/xlink" x="0px" y="0px"
	 viewBox="0 0 728 728" style="enable-background:new 0 0 728 728;" xml:space="preserve">
<style type="text/css">
	.st0{fill:#FFFFFF;stroke:#000000;stroke-miterlimit:10;}
</style>
<g transform="translate(0.000000,728.000000) scale(0.100000,-0.100000)">
	<path class="st0" d="M3352,7270.6c-755.1-56.4-1519.9-373.4-2088.9-868C551.2,5785.6,98.6,4912.8,13.4,3992
		c-30-325.3-6-785.1,55.2-1066.1c15.6-72,32.4-151.3,36-174.1c26.4-130.9,175.3-540.2,255.7-702.3c94.8-192.1,278.5-481.4,413-654.3
		c195.7-250.9,463.4-509,723.9-696.3c120.1-87.6,377-252.1,392.6-252.1c6,0,32.4-14.4,61.2-32.4c55.2-34.8,279.7-135.7,302.5-135.7
		c7.2,0,19.2,34.8,26.4,80.4s27.6,163.3,44.4,261.7c16.8,99.6,37.2,218.5,44.4,264.1c7.2,46.8,15.6,94.8,19.2,109.2
		c4.8,21.6-4.8,30-61.2,51.6c-129.7,54-432.2,255.7-583.5,391.4c-127.3,114-282.1,268.9-325.3,324.1c-25.2,33.6-74.4,96-109.2,140.5
		c-103.2,129.7-170.5,237.7-280.9,453.8c-60,117.7-159.7,378.2-196.9,516.2c-34.8,127.3-73.2,339.7-84,462.2
		c-6,73.2-14.4,162.1-18,198.1c-15.6,150.1,30,595.5,79.2,786.3c48,186.1,194.5,584.7,229.3,627.9c7.2,8.4,26.4,42,40.8,75.6
		c15.6,33.6,44.4,84,64.8,114c19.2,28.8,52.8,78,74.4,110.4c169.3,252.1,431,533,651.9,698.7c147.7,110.4,316.9,222.1,396.2,261.7
		c33.6,15.6,84,40.8,114,56.4c111.6,58.8,386.6,157.3,564.2,204.1c138.1,36,360.2,68.4,536.6,78c327.7,19.2,732.3-31.2,1030-127.3
		c102-33.6,360.2-136.9,420.2-168.1c144.1-76.8,223.3-121.3,292.9-166.9c75.6-51.6,99.6-68.4,276.1-205.3
		c43.2-34.8,128.5-112.8,187.3-175.3c336.1-348.2,509-613.5,677.1-1038.5c96-241.3,163.3-561.8,181.3-863.2
		c25.2-408.2-54-884.8-204.1-1241.3c-146.5-349.4-319.3-624.3-543.8-870.4c-232.9-255.7-551-501.8-800.7-619.5
		c-92.4-44.4-108-55.2-103.2-76.8c2.4-13.2,12-64.8,19.2-114c8.4-49.2,26.4-163.3,42-252.1c15.6-88.8,34.8-206.5,42-261.7
		c8.4-54,16.8-98.4,18-98.4c9.6,0,206.5,92.4,312.1,146.5c516.2,262.9,1058.9,762.3,1397.4,1288.2
		c280.9,435.8,473,984.4,534.2,1524.7c22.8,196.9,26.4,563,7.2,768.3c-39.6,446.6-189.7,944.8-402.2,1339.8
		c-180.1,337.3-386.6,617.1-649.5,881.2c-114,115.3-258.1,244.9-290.5,262.9c-12,6-46.8,33.6-80.4,60
		c-207.7,172.9-588.3,385.4-900.4,504.2c-151.3,57.6-342.1,118.9-414.2,132.1c-22.8,4.8-100.8,21.6-174.1,37.2
		C4075.9,7271.8,3682.2,7294.6,3352,7270.6z"/>
	<path class="st0" d="M3304,5800c-282.1-42-559.4-146.5-841.6-314.5c-157.3-94.8-435.8-354.2-570.2-530.6
		c-214.9-283.3-360.2-635.1-413-996.4c-49.2-332.5-18-708.3,84-996.4c20.4-58.8,40.8-118.9,45.6-132.1
		c16.8-58.8,150.1-309.7,212.5-402.2c165.7-244.9,375.8-455,608.7-609.9c44.4-30,85.2-50.4,88.8-46.8c9.6,9.6,20.4,60,57.6,284.5
		c16.8,96,37.2,219.7,48,276.1c9.6,56.4,21.6,133.3,25.2,170.5l8.4,69.6l-88.8,98.4c-49.2,55.2-109.2,132.1-135.7,171.7
		c-25.2,39.6-55.2,86.4-67.2,103.2c-27.6,42-111.6,243.7-129.7,310.9c-115.2,455-24,910,258.1,1281c212.5,277.3,566.6,485,922,539
		c153.7,24,390.2,16.8,541.4-16.8c170.5-38.4,395-139.3,534.2-241.3c68.4-50.4,236.5-207.7,270.1-254.5
		c94.8-127.3,126.1-176.5,181.3-285.7c62.4-124.9,114-278.5,129.7-385.4c4.8-30,10.8-121.3,14.4-204.1
		c15.6-326.5-81.6-638.7-282.1-906.4c-38.4-50.4-72-88.8-146.5-168.1l-45.6-48l16.8-84c9.6-45.6,37.2-200.5,60-342.1
		c49.2-297.7,60-359,69.6-367.4c3.6-3.6,40.8,16.8,84,45.6c336.1,223.3,593.1,521,779.1,904c174.1,359,240.1,816.4,178.9,1232.9
		c-31.2,208.9-66,337.3-147.7,531.8c-115.2,276.1-277.3,512.6-492.2,721.5C5052,5313.7,4867.1,5465,4846.7,5465
		c-3.6,0-25.2,13.2-45.6,28.8c-38.4,28.8-304.9,164.5-350.6,177.7c-13.2,4.8-78,26.4-144.1,49.2
		C4021.9,5821.6,3641.3,5851.6,3304,5800z"/>
	<path class="st0" d="M3490.1,4356.9c-96-22.8-261.7-108-324.1-168.1c-91.2-87.6-120.1-126.1-174.1-234.1
		c-63.6-128.5-84-231.7-73.2-366.2c18-222.1,121.3-398.6,319.3-551l42-32.4V1510.5c0-821.2,3.6-1498.3,9.6-1503.1
		c12-12,699.9-13.2,713.1-1.2c4.8,6,9.6,683.1,9.6,1505.5v1494.6l36,25.2c135.7,96,249.7,247.3,292.9,387.8
		c114,363.8-61.2,739.5-419,899.2C3822.6,4364.1,3602.9,4383.3,3490.1,4356.9z"/>
</g>
</svg>
